# This file uses centimeters as units for non-parametric coordinates.

mtllib PillarCenter.mtl
g default
v -1.832406 2.269717 2.132045
v -0.538162 2.269717 2.132045
v 0.756081 2.269717 2.132045
v 2.050325 2.269717 2.132045
v -1.832406 2.269717 0.837801
v 2.050325 2.269717 0.837801
v -1.832406 2.269717 -0.456443
v 2.050325 2.269717 -0.456443
v -1.832406 2.269717 -1.750686
v -0.538162 2.269717 -1.750686
v 0.756081 2.269717 -1.750686
v 2.050325 2.269717 -1.750686
v -1.171319 20.839807 1.470958
v -0.317800 20.839805 1.470958
v 0.535719 20.839805 1.470958
v 1.389238 20.839805 1.470958
v 1.389238 20.839805 0.617439
v 1.389238 20.839805 -0.236080
v 1.389238 20.839805 -1.089599
v 0.535719 20.839805 -1.089599
v -0.317800 20.839805 -1.089599
v -1.171319 20.839805 -1.089599
v -1.171319 20.839805 -0.236080
v -1.171319 20.839807 0.617439
vt 0.425000 0.300000
vt 0.475000 0.300000
vt 0.475000 0.300000
vt 0.425000 0.300000
vt 0.425000 0.350000
vt 0.425000 0.350000
vt 0.525000 0.300000
vt 0.525000 0.300000
vt 0.575000 0.300000
vt 0.575000 0.300000
vt 0.575000 0.350000
vt 0.575000 0.350000
vt 0.425000 0.400000
vt 0.425000 0.400000
vt 0.575000 0.400000
vt 0.575000 0.400000
vt 0.475000 0.450000
vt 0.425000 0.450000
vt 0.425000 0.450000
vt 0.475000 0.450000
vt 0.525000 0.450000
vt 0.525000 0.450000
vt 0.575000 0.450000
vt 0.575000 0.450000
vn 0.000000 0.035577 0.999367
vn 0.000000 0.035577 0.999367
vn 0.000000 0.035577 0.999367
vn 0.000000 0.035577 0.999367
vn -0.999367 0.035577 0.000000
vn -0.999367 0.035577 0.000000
vn -0.999367 0.035577 0.000000
vn -0.999367 0.035577 0.000000
vn 0.000000 0.035577 0.999367
vn 0.000000 0.035577 0.999367
vn 0.000000 0.035577 0.999367
vn 0.000000 0.035577 0.999367
vn 0.000000 0.035577 0.999367
vn 0.000000 0.035577 0.999367
vn 0.000000 0.035577 0.999367
vn 0.000000 0.035577 0.999367
vn 0.999367 0.035577 0.000000
vn 0.999367 0.035577 0.000000
vn 0.999367 0.035577 0.000000
vn 0.999367 0.035577 0.000000
vn -0.999367 0.035577 -0.000000
vn -0.999367 0.035577 -0.000000
vn -0.999367 0.035577 -0.000000
vn -0.999367 0.035577 -0.000000
vn 0.999367 0.035577 0.000000
vn 0.999367 0.035577 0.000000
vn 0.999367 0.035577 0.000000
vn 0.999367 0.035577 0.000000
vn 0.000000 0.035577 -0.999367
vn 0.000000 0.035577 -0.999367
vn 0.000000 0.035577 -0.999367
vn 0.000000 0.035577 -0.999367
vn -0.999367 0.035577 0.000000
vn -0.999367 0.035577 0.000000
vn -0.999367 0.035577 0.000000
vn -0.999367 0.035577 0.000000
vn 0.000000 0.035577 -0.999367
vn 0.000000 0.035577 -0.999367
vn 0.000000 0.035577 -0.999367
vn 0.000000 0.035577 -0.999367
vn 0.999367 0.035577 0.000000
vn 0.999367 0.035577 0.000000
vn 0.999367 0.035577 0.000000
vn 0.999367 0.035577 0.000000
vn 0.000000 0.035577 -0.999367
vn 0.000000 0.035577 -0.999367
vn 0.000000 0.035577 -0.999367
vn 0.000000 0.035577 -0.999367
vn 0.000000 1.000000 -0.000000
vn 0.000000 1.000000 -0.000000
vn 0.000000 1.000000 -0.000000
vn 0.000000 1.000000 -0.000000
vn 0.000000 1.000000 -0.000000
vn 0.000000 1.000000 -0.000000
vn 0.000000 1.000000 -0.000000
vn 0.000000 1.000000 -0.000000
vn 0.000000 1.000000 -0.000000
vn 0.000000 1.000000 -0.000000
vn 0.000000 1.000000 -0.000000
vn 0.000000 1.000000 -0.000000
s off
g Beam Column
usemtl initialShadingGroup
f 1/1/1 2/2/2 14/3/3 13/4/4
f 5/5/5 1/1/6 13/4/7 24/6/8
f 2/2/9 3/7/10 15/8/11 14/3/12
f 3/7/13 4/9/14 16/10/15 15/8/16
f 4/9/17 6/11/18 17/12/19 16/10/20
f 7/13/21 5/5/22 24/6/23 23/14/24
f 6/11/25 8/15/26 18/16/27 17/12/28
f 10/17/29 9/18/30 22/19/31 21/20/32
f 9/18/33 7/13/34 23/14/35 22/19/36
f 11/21/37 10/17/38 21/20/39 20/22/40
f 8/15/41 12/23/42 19/24/43 18/16/44
f 12/23/45 11/21/46 20/22/47 19/24/48
f 14/3/49 15/8/50 16/10/51 17/12/52 18/16/53 19/24/54 20/22/55 21/20/56 22/19/57 23/14/58 24/6/59 13/4/60
