# This file uses centimeters as units for non-parametric coordinates.

mtllib PillarBottom.mtl
g default
v -3.879703 -0.036921 4.190679
v -2.279703 -0.036921 4.190679
v -0.679703 -0.036921 4.190679
v 0.920297 -0.036921 4.190679
v 2.520297 -0.036921 4.190679
v 4.120297 -0.036921 4.190679
v -3.879703 0.725158 4.190679
v -2.279703 0.725158 4.190679
v -0.679703 0.725158 4.190679
v 0.920297 0.725158 4.190679
v 2.520297 0.725158 4.190679
v 4.120297 0.725158 4.190679
v -3.879703 0.725158 2.590680
v 4.120297 0.725158 2.590680
v -3.879703 0.725158 0.990679
v 4.120297 0.725158 0.990679
v -3.879703 0.725158 -0.609321
v 4.120297 0.725158 -0.609321
v -3.879703 0.725158 -2.209321
v 4.120297 0.725158 -2.209321
v -3.879703 0.725158 -3.809321
v -2.279703 0.725158 -3.809321
v -0.679703 0.725158 -3.809321
v 0.920297 0.725158 -3.809321
v 2.520297 0.725158 -3.809321
v 4.120297 0.725158 -3.809321
v -3.879703 -0.036921 -3.809321
v -2.279703 -0.036921 -3.809321
v -0.679703 -0.036921 -3.809321
v 0.920297 -0.036921 -3.809321
v 2.520297 -0.036921 -3.809321
v 4.120297 -0.036921 -3.809321
v -3.879703 -0.036921 -2.209321
v -2.279703 -0.036921 -2.209321
v -0.679703 -0.036921 -2.209321
v 0.920297 -0.036921 -2.209321
v 2.520297 -0.036921 -2.209321
v 4.120297 -0.036921 -2.209321
v -3.879703 -0.036921 -0.609321
v -2.279703 -0.036921 -0.609321
v -0.679703 -0.036921 -0.609321
v 0.920297 -0.036921 -0.609321
v 2.520297 -0.036921 -0.609321
v 4.120297 -0.036921 -0.609321
v -3.879703 -0.036921 0.990679
v -2.279703 -0.036921 0.990679
v -0.679703 -0.036921 0.990679
v 0.920297 -0.036921 0.990679
v 2.520297 -0.036921 0.990679
v 4.120297 -0.036921 0.990679
v -3.879703 -0.036921 2.590680
v -2.279703 -0.036921 2.590680
v -0.679703 -0.036921 2.590680
v 0.920297 -0.036921 2.590680
v 2.520297 -0.036921 2.590680
v 4.120297 -0.036921 2.590680
v -3.024439 1.164816 3.335415
v -1.766544 1.164816 3.335415
v -3.024439 1.164816 2.077521
v -0.508650 1.164816 3.335415
v 0.749244 1.164816 3.335415
v 2.007138 1.164816 3.335415
v 3.265032 1.164816 3.335415
v 3.265032 1.164816 2.077521
v -3.024439 1.164816 0.819627
v 3.265032 1.164816 0.819627
v -3.024439 1.164816 -0.438268
v 3.265032 1.164816 -0.438268
v -3.024439 1.164816 -1.696162
v 3.265032 1.164816 -1.696162
v -1.766544 1.164816 -2.954056
v -3.024439 1.164816 -2.954056
v -0.508650 1.164816 -2.954056
v 0.749244 1.164816 -2.954056
v 2.007138 1.164816 -2.954056
v 3.265032 1.164816 -2.954056
v -3.024439 1.756402 3.335415
v -1.766544 1.756402 3.335415
v -3.024439 1.756402 2.077521
v -0.508650 1.756402 3.335415
v 0.749244 1.756402 3.335415
v 2.007138 1.756402 3.335415
v 3.265032 1.756402 3.335415
v 3.265032 1.756402 2.077521
v -3.024439 1.756402 0.819627
v 3.265032 1.756402 0.819627
v -3.024439 1.756402 -0.438268
v 3.265032 1.756402 -0.438268
v -3.024439 1.756402 -1.696162
v 3.265032 1.756402 -1.696162
v -1.766544 1.756402 -2.954056
v -3.024439 1.756402 -2.954056
v -0.508650 1.756402 -2.954056
v 0.749244 1.756402 -2.954056
v 2.007138 1.756402 -2.954056
v 3.265032 1.756402 -2.954056
v -2.563593 2.269717 2.874569
v -1.490037 2.269717 2.874569
v -2.563593 2.269717 1.801013
v -0.416481 2.269717 2.874569
v 0.657075 2.269717 2.874569
v 1.730631 2.269717 2.874569
v 2.804186 2.269717 2.874569
v 2.804186 2.269717 1.801013
v -2.563593 2.269717 0.727457
v 2.804186 2.269717 0.727457
v -2.563593 2.269717 -0.346098
v 2.804186 2.269717 -0.346098
v -2.563593 2.269717 -1.419654
v 2.804186 2.269717 -1.419654
v -1.490037 2.269717 -2.493210
v -2.563593 2.269717 -2.493210
v -0.416481 2.269717 -2.493210
v 0.657075 2.269717 -2.493210
v 1.730631 2.269717 -2.493210
v 2.804186 2.269717 -2.493210
v -1.821068 2.269717 2.132045
v -0.526825 2.269717 2.132045
v 0.767419 2.269717 2.132045
v 2.061662 2.269717 2.132045
v 2.061662 2.269717 0.837801
v 2.061662 2.269717 -0.456443
v 2.061662 2.269717 -1.750686
v 0.767419 2.269717 -1.750686
v -0.526825 2.269717 -1.750686
v -1.821068 2.269717 -1.750686
v -1.821068 2.269717 -0.456443
v -1.821068 2.269717 0.837801
vt 0.375000 0.000000
vt 0.425000 0.000000
vt 0.425000 0.250000
vt 0.375000 0.250000
vt 0.475000 0.000000
vt 0.475000 0.250000
vt 0.525000 0.000000
vt 0.525000 0.250000
vt 0.575000 0.000000
vt 0.575000 0.250000
vt 0.625000 0.000000
vt 0.625000 0.250000
vt 0.375000 0.250000
vt 0.425000 0.250000
vt 0.425000 0.300000
vt 0.375000 0.300000
vt 0.475000 0.250000
vt 0.475000 0.300000
vt 0.525000 0.250000
vt 0.525000 0.300000
vt 0.575000 0.250000
vt 0.575000 0.300000
vt 0.625000 0.250000
vt 0.625000 0.300000
vt 0.425000 0.350000
vt 0.375000 0.350000
vt 0.625000 0.350000
vt 0.575000 0.350000
vt 0.425000 0.400000
vt 0.375000 0.400000
vt 0.625000 0.400000
vt 0.575000 0.400000
vt 0.425000 0.450000
vt 0.375000 0.450000
vt 0.625000 0.450000
vt 0.575000 0.450000
vt 0.425000 0.500000
vt 0.375000 0.500000
vt 0.475000 0.450000
vt 0.475000 0.500000
vt 0.525000 0.450000
vt 0.525000 0.500000
vt 0.575000 0.500000
vt 0.625000 0.500000
vt 0.375000 0.500000
vt 0.425000 0.500000
vt 0.425000 0.750000
vt 0.375000 0.750000
vt 0.475000 0.500000
vt 0.475000 0.750000
vt 0.525000 0.500000
vt 0.525000 0.750000
vt 0.575000 0.500000
vt 0.575000 0.750000
vt 0.625000 0.500000
vt 0.625000 0.750000
vt 0.425000 0.800000
vt 0.375000 0.800000
vt 0.475000 0.800000
vt 0.525000 0.800000
vt 0.575000 0.800000
vt 0.625000 0.800000
vt 0.425000 0.850000
vt 0.375000 0.850000
vt 0.475000 0.850000
vt 0.525000 0.850000
vt 0.575000 0.850000
vt 0.625000 0.850000
vt 0.425000 0.900000
vt 0.375000 0.900000
vt 0.475000 0.900000
vt 0.525000 0.900000
vt 0.575000 0.900000
vt 0.625000 0.900000
vt 0.425000 0.950000
vt 0.375000 0.950000
vt 0.475000 0.950000
vt 0.525000 0.950000
vt 0.575000 0.950000
vt 0.625000 0.950000
vt 0.425000 1.000000
vt 0.375000 1.000000
vt 0.475000 1.000000
vt 0.525000 1.000000
vt 0.575000 1.000000
vt 0.625000 1.000000
vt 0.825000 0.000000
vt 0.875000 0.000000
vt 0.875000 0.250000
vt 0.825000 0.250000
vt 0.775000 0.000000
vt 0.775000 0.250000
vt 0.725000 0.000000
vt 0.725000 0.250000
vt 0.675000 0.000000
vt 0.675000 0.250000
vt 0.125000 0.000000
vt 0.175000 0.000000
vt 0.175000 0.250000
vt 0.125000 0.250000
vt 0.225000 0.000000
vt 0.225000 0.250000
vt 0.275000 0.000000
vt 0.275000 0.250000
vt 0.325000 0.000000
vt 0.325000 0.250000
vt 0.425000 0.250000
vt 0.375000 0.250000
vt 0.375000 0.300000
vt 0.375000 0.300000
vt 0.475000 0.250000
vt 0.525000 0.250000
vt 0.575000 0.250000
vt 0.625000 0.250000
vt 0.625000 0.300000
vt 0.625000 0.300000
vt 0.375000 0.350000
vt 0.375000 0.350000
vt 0.625000 0.350000
vt 0.625000 0.350000
vt 0.375000 0.400000
vt 0.375000 0.400000
vt 0.625000 0.400000
vt 0.625000 0.400000
vt 0.375000 0.450000
vt 0.375000 0.450000
vt 0.625000 0.450000
vt 0.625000 0.450000
vt 0.375000 0.500000
vt 0.425000 0.500000
vt 0.475000 0.500000
vt 0.525000 0.500000
vt 0.575000 0.500000
vt 0.625000 0.500000
vt 0.425000 0.250000
vt 0.375000 0.250000
vt 0.375000 0.300000
vt 0.475000 0.250000
vt 0.525000 0.250000
vt 0.575000 0.250000
vt 0.625000 0.250000
vt 0.625000 0.300000
vt 0.375000 0.350000
vt 0.625000 0.350000
vt 0.375000 0.400000
vt 0.625000 0.400000
vt 0.375000 0.450000
vt 0.625000 0.450000
vt 0.375000 0.500000
vt 0.425000 0.500000
vt 0.475000 0.500000
vt 0.525000 0.500000
vt 0.575000 0.500000
vt 0.625000 0.500000
vn 0.000000 0.000000 1.000000
vn 0.000000 0.000000 1.000000
vn 0.000000 0.000000 1.000000
vn 0.000000 0.000000 1.000000
vn 0.000000 0.000000 1.000000
vn 0.000000 0.000000 1.000000
vn 0.000000 0.000000 1.000000
vn 0.000000 0.000000 1.000000
vn 0.000000 0.000000 1.000000
vn 0.000000 0.000000 1.000000
vn 0.000000 0.000000 1.000000
vn 0.000000 0.000000 1.000000
vn 0.000000 1.000000 -0.000000
vn 0.000000 1.000000 -0.000000
vn 0.000000 1.000000 -0.000000
vn 0.000000 1.000000 -0.000000
vn 0.000000 1.000000 -0.000000
vn 0.000000 1.000000 -0.000000
vn 0.000000 1.000000 -0.000000
vn 0.000000 1.000000 -0.000000
vn -0.000000 1.000000 -0.000000
vn -0.000000 1.000000 -0.000000
vn -0.000000 1.000000 -0.000000
vn -0.000000 1.000000 -0.000000
vn 0.000000 1.000000 0.000000
vn 0.000000 1.000000 0.000000
vn -0.000000 1.000000 0.000000
vn -0.000000 1.000000 0.000000
vn 0.000000 1.000000 0.000000
vn 0.000000 1.000000 0.000000
vn -0.000000 1.000000 0.000000
vn -0.000000 1.000000 0.000000
vn 0.000000 1.000000 0.000000
vn 0.000000 1.000000 0.000000
vn -0.000000 1.000000 0.000000
vn -0.000000 1.000000 0.000000
vn 0.000000 1.000000 0.000000
vn 0.000000 1.000000 0.000000
vn 0.000000 1.000000 0.000000
vn 0.000000 1.000000 0.000000
vn 0.000000 1.000000 0.000000
vn 0.000000 1.000000 0.000000
vn -0.000000 1.000000 0.000000
vn -0.000000 1.000000 0.000000
vn 0.000000 0.000000 -1.000000
vn 0.000000 0.000000 -1.000000
vn 0.000000 0.000000 -1.000000
vn 0.000000 0.000000 -1.000000
vn 0.000000 0.000000 -1.000000
vn 0.000000 0.000000 -1.000000
vn 0.000000 0.000000 -1.000000
vn 0.000000 0.000000 -1.000000
vn 0.000000 0.000000 -1.000000
vn 0.000000 0.000000 -1.000000
vn 0.000000 0.000000 -1.000000
vn 0.000000 0.000000 -1.000000
vn 0.000000 -1.000000 0.000000
vn 0.000000 -1.000000 0.000000
vn 0.000000 -1.000000 0.000000
vn 0.000000 -1.000000 0.000000
vn 0.000000 -1.000000 0.000000
vn 0.000000 -1.000000 0.000000
vn -0.000000 -1.000000 0.000000
vn -0.000000 -1.000000 0.000000
vn -0.000000 -1.000000 0.000000
vn -0.000000 -1.000000 0.000000
vn 0.000000 -1.000000 0.000000
vn 0.000000 -1.000000 0.000000
vn 0.000000 -1.000000 0.000000
vn 0.000000 -1.000000 0.000000
vn 0.000000 -1.000000 -0.000000
vn -0.000000 -1.000000 -0.000000
vn -0.000000 -1.000000 0.000000
vn 0.000000 -1.000000 0.000000
vn 0.000000 -1.000000 0.000000
vn 0.000000 -1.000000 0.000000
vn 0.000000 -1.000000 0.000000
vn 0.000000 -1.000000 0.000000
vn 0.000000 -1.000000 0.000000
vn 0.000000 -1.000000 0.000000
vn 0.000000 -1.000000 0.000000
vn 0.000000 -1.000000 0.000000
vn 0.000000 -1.000000 0.000000
vn 0.000000 -1.000000 0.000000
vn 0.000000 -1.000000 0.000000
vn 0.000000 -1.000000 0.000000
vn 0.000000 -1.000000 0.000000
vn 0.000000 -1.000000 0.000000
vn 0.000000 -1.000000 0.000000
vn 0.000000 -1.000000 0.000000
vn 0.000000 -1.000000 0.000000
vn 0.000000 -1.000000 0.000000
vn 1.000000 0.000000 0.000000
vn 1.000000 0.000000 0.000000
vn 1.000000 0.000000 0.000000
vn 1.000000 0.000000 0.000000
vn 1.000000 0.000000 0.000000
vn 1.000000 0.000000 0.000000
vn 1.000000 0.000000 0.000000
vn 1.000000 0.000000 0.000000
vn 1.000000 0.000000 0.000000
vn 1.000000 0.000000 0.000000
vn 1.000000 0.000000 0.000000
vn 1.000000 0.000000 0.000000
vn -1.000000 0.000000 0.000000
vn -1.000000 0.000001 0.000000
vn -1.000000 0.000001 0.000000
vn -1.000000 0.000000 0.000000
vn -1.000000 0.000001 0.000000
vn -1.000000 0.000001 0.000000
vn -1.000000 -0.000000 0.000000
vn -1.000000 -0.000000 0.000000
vn -1.000000 -0.000001 0.000000
vn -1.000000 -0.000001 0.000000
vn -1.000000 0.000000 0.000000
vn -1.000000 0.000000 0.000000
vn 0.000000 0.889369 0.457190
vn 0.000000 0.889369 0.457190
vn 0.000000 0.889369 0.457190
vn 0.000000 0.889369 0.457190
vn -0.457190 0.889369 0.000000
vn -0.457190 0.889369 0.000000
vn -0.457190 0.889369 0.000000
vn -0.457190 0.889369 0.000000
vn 0.000000 0.889369 0.457190
vn 0.000000 0.889369 0.457190
vn 0.000000 0.889369 0.457190
vn 0.000000 0.889369 0.457190
vn 0.000000 0.889369 0.457190
vn 0.000000 0.889369 0.457190
vn 0.000000 0.889369 0.457190
vn 0.000000 0.889369 0.457190
vn 0.000000 0.889369 0.457190
vn 0.000000 0.889369 0.457190
vn 0.000000 0.889369 0.457190
vn 0.000000 0.889369 0.457190
vn 0.000000 0.889369 0.457190
vn 0.000000 0.889369 0.457190
vn 0.000000 0.889369 0.457190
vn 0.000000 0.889369 0.457190
vn 0.457190 0.889369 0.000000
vn 0.457190 0.889369 0.000000
vn 0.457190 0.889369 0.000000
vn 0.457190 0.889369 0.000000
vn -0.457189 0.889369 0.000000
vn -0.457189 0.889369 0.000000
vn -0.457190 0.889369 0.000000
vn -0.457189 0.889369 0.000000
vn 0.457190 0.889369 0.000000
vn 0.457190 0.889369 0.000000
vn 0.457190 0.889369 0.000000
vn 0.457190 0.889369 0.000000
vn -0.457190 0.889369 0.000000
vn -0.457190 0.889369 0.000000
vn -0.457190 0.889369 0.000000
vn -0.457190 0.889369 0.000000
vn 0.457190 0.889369 0.000000
vn 0.457190 0.889369 0.000000
vn 0.457190 0.889369 0.000000
vn 0.457190 0.889369 0.000000
vn -0.457190 0.889369 0.000000
vn -0.457190 0.889369 0.000000
vn -0.457190 0.889369 0.000000
vn -0.457190 0.889369 0.000000
vn 0.457190 0.889369 0.000000
vn 0.457190 0.889369 0.000000
vn 0.457190 0.889369 0.000000
vn 0.457190 0.889369 0.000000
vn 0.000000 0.889369 -0.457190
vn 0.000000 0.889369 -0.457190
vn 0.000000 0.889369 -0.457190
vn 0.000000 0.889369 -0.457190
vn -0.457190 0.889369 0.000000
vn -0.457190 0.889369 0.000000
vn -0.457190 0.889369 0.000000
vn -0.457190 0.889369 0.000000
vn 0.000000 0.889369 -0.457190
vn 0.000000 0.889369 -0.457190
vn 0.000000 0.889369 -0.457190
vn 0.000000 0.889369 -0.457190
vn 0.000000 0.889369 -0.457190
vn 0.000000 0.889369 -0.457190
vn 0.000000 0.889369 -0.457190
vn 0.000000 0.889369 -0.457190
vn 0.000000 0.889369 -0.457190
vn 0.000000 0.889369 -0.457190
vn 0.000000 0.889369 -0.457190
vn 0.000000 0.889369 -0.457190
vn 0.457190 0.889369 0.000000
vn 0.457190 0.889369 0.000000
vn 0.457190 0.889369 0.000000
vn 0.457190 0.889369 0.000000
vn 0.000000 0.889369 -0.457190
vn 0.000000 0.889369 -0.457190
vn 0.000000 0.889369 -0.457190
vn 0.000000 0.889369 -0.457190
vn 0.000000 0.000000 1.000000
vn 0.000000 0.000000 1.000000
vn 0.000000 0.000000 1.000000
vn 0.000000 0.000000 1.000000
vn -1.000000 0.000000 0.000000
vn -1.000000 0.000000 0.000000
vn -1.000000 0.000000 0.000000
vn -1.000000 0.000000 0.000000
vn 0.000000 0.000000 1.000000
vn 0.000000 0.000000 1.000000
vn 0.000000 0.000000 1.000000
vn 0.000000 0.000000 1.000000
vn 0.000000 0.000000 1.000000
vn 0.000000 0.000000 1.000000
vn 0.000000 0.000000 1.000000
vn 0.000000 0.000000 1.000000
vn 0.000000 0.000000 1.000000
vn 0.000000 0.000000 1.000000
vn 0.000000 0.000000 1.000000
vn 0.000000 0.000000 1.000000
vn 0.000000 0.000000 1.000000
vn 0.000000 0.000000 1.000000
vn 0.000000 0.000000 1.000000
vn 0.000000 0.000000 1.000000
vn 1.000000 0.000000 0.000000
vn 1.000000 0.000000 0.000000
vn 1.000000 0.000000 0.000000
vn 1.000000 0.000000 0.000000
vn -1.000000 0.000000 0.000000
vn -1.000000 0.000000 0.000000
vn -1.000000 0.000000 0.000000
vn -1.000000 0.000000 0.000000
vn 1.000000 0.000000 0.000000
vn 1.000000 0.000000 0.000000
vn 1.000000 0.000000 0.000000
vn 1.000000 0.000000 0.000000
vn -1.000000 0.000000 0.000000
vn -1.000000 0.000000 0.000000
vn -1.000000 0.000000 0.000000
vn -1.000000 0.000000 0.000000
vn 1.000000 0.000000 0.000000
vn 1.000000 0.000000 0.000000
vn 1.000000 0.000000 0.000000
vn 1.000000 0.000000 0.000000
vn -1.000000 0.000000 0.000000
vn -1.000000 0.000000 0.000000
vn -1.000000 0.000000 0.000000
vn -1.000000 0.000000 0.000000
vn 1.000000 0.000000 0.000000
vn 1.000000 0.000000 0.000000
vn 1.000000 0.000000 0.000000
vn 1.000000 0.000000 0.000000
vn 0.000000 0.000000 -1.000000
vn 0.000000 0.000000 -1.000000
vn 0.000000 0.000000 -1.000000
vn 0.000000 0.000000 -1.000000
vn -1.000000 0.000000 0.000000
vn -1.000000 0.000000 0.000000
vn -1.000000 0.000000 0.000000
vn -1.000000 0.000000 0.000000
vn 0.000000 0.000000 -1.000000
vn 0.000000 0.000000 -1.000000
vn 0.000000 0.000000 -1.000000
vn 0.000000 0.000000 -1.000000
vn 0.000000 0.000000 -1.000000
vn 0.000000 0.000000 -1.000000
vn 0.000000 0.000000 -1.000000
vn 0.000000 0.000000 -1.000000
vn 0.000000 0.000000 -1.000000
vn 0.000000 0.000000 -1.000000
vn 0.000000 0.000000 -1.000000
vn 0.000000 0.000000 -1.000000
vn 1.000000 0.000000 0.000000
vn 1.000000 0.000000 0.000000
vn 1.000000 0.000000 0.000000
vn 1.000000 0.000000 0.000000
vn 0.000000 0.000000 -1.000000
vn 0.000000 0.000000 -1.000000
vn 0.000000 0.000000 -1.000000
vn 0.000000 0.000000 -1.000000
vn 0.000000 0.668053 0.744114
vn 0.000000 0.668053 0.744114
vn 0.000000 0.668053 0.744114
vn 0.000000 0.668053 0.744114
vn -0.744114 0.668053 0.000000
vn -0.744114 0.668053 0.000000
vn -0.744114 0.668053 0.000000
vn -0.744114 0.668053 0.000000
vn 0.000000 0.668053 0.744114
vn 0.000000 0.668053 0.744114
vn 0.000000 0.668053 0.744114
vn 0.000000 0.668053 0.744114
vn 0.000000 0.668053 0.744114
vn 0.000000 0.668053 0.744114
vn 0.000000 0.668053 0.744114
vn 0.000000 0.668053 0.744114
vn 0.000000 0.668053 0.744114
vn 0.000000 0.668053 0.744114
vn 0.000000 0.668053 0.744114
vn 0.000000 0.668053 0.744114
vn 0.000000 0.668053 0.744114
vn 0.000000 0.668053 0.744114
vn 0.000000 0.668053 0.744114
vn 0.000000 0.668053 0.744114
vn 0.744114 0.668053 0.000000
vn 0.744114 0.668053 0.000000
vn 0.744114 0.668053 0.000000
vn 0.744114 0.668053 0.000000
vn -0.744114 0.668052 0.000000
vn -0.744114 0.668052 0.000000
vn -0.744114 0.668052 0.000000
vn -0.744114 0.668052 0.000000
vn 0.744114 0.668053 0.000000
vn 0.744114 0.668053 0.000000
vn 0.744114 0.668053 0.000000
vn 0.744114 0.668053 0.000000
vn -0.744113 0.668054 0.000000
vn -0.744113 0.668054 0.000000
vn -0.744113 0.668054 0.000000
vn -0.744113 0.668054 0.000000
vn 0.744114 0.668052 0.000000
vn 0.744114 0.668052 0.000000
vn 0.744114 0.668052 0.000000
vn 0.744114 0.668052 0.000000
vn -0.744113 0.668054 0.000000
vn -0.744113 0.668054 0.000000
vn -0.744113 0.668054 0.000000
vn -0.744113 0.668054 0.000000
vn 0.744114 0.668053 0.000000
vn 0.744114 0.668053 0.000000
vn 0.744114 0.668053 0.000000
vn 0.744114 0.668053 0.000000
vn 0.000000 0.668053 -0.744114
vn 0.000000 0.668053 -0.744114
vn 0.000000 0.668053 -0.744114
vn 0.000000 0.668053 -0.744114
vn -0.744113 0.668053 0.000000
vn -0.744113 0.668053 0.000000
vn -0.744113 0.668053 0.000000
vn -0.744113 0.668053 0.000000
vn 0.000000 0.668053 -0.744114
vn 0.000000 0.668053 -0.744114
vn 0.000000 0.668053 -0.744114
vn 0.000000 0.668053 -0.744114
vn 0.000000 0.668053 -0.744114
vn 0.000000 0.668053 -0.744114
vn 0.000000 0.668053 -0.744114
vn 0.000000 0.668053 -0.744114
vn 0.000000 0.668053 -0.744114
vn 0.000000 0.668053 -0.744114
vn 0.000000 0.668053 -0.744114
vn 0.000000 0.668053 -0.744114
vn 0.744114 0.668052 0.000000
vn 0.744114 0.668052 0.000000
vn 0.744114 0.668052 0.000000
vn 0.744114 0.668052 0.000000
vn 0.000000 0.668053 -0.744114
vn 0.000000 0.668053 -0.744114
vn 0.000000 0.668053 -0.744114
vn 0.000000 0.668053 -0.744114
vn 0.000000 1.000000 0.000000
vn 0.000000 1.000000 0.000000
vn 0.000000 1.000000 0.000000
vn 0.000000 1.000000 0.000000
vn 0.000000 1.000000 0.000000
vn 0.000000 1.000000 0.000000
vn 0.000000 1.000000 0.000000
vn 0.000000 1.000000 0.000000
vn 0.000000 1.000000 0.000000
vn 0.000000 1.000000 0.000000
vn 0.000000 1.000000 0.000000
vn 0.000000 1.000000 0.000000
s 1
g Base Column
usemtl initialShadingGroup
f 1/1/1 2/2/2 8/3/3 7/4/4
f 2/2/2 3/5/5 9/6/6 8/3/3
f 3/5/5 4/7/7 10/8/8 9/6/6
f 4/7/7 5/9/9 11/10/10 10/8/8
f 5/9/9 6/11/11 12/12/12 11/10/10
s 2
f 97/13/13 98/14/14 117/15/15 99/16/16
f 98/14/14 100/17/17 118/18/18 117/15/15
f 100/17/17 101/19/19 119/20/20 118/18/18
f 101/19/19 102/21/21 120/22/22 119/20/20
f 102/21/21 103/23/23 104/24/24 120/22/22
f 99/16/16 117/15/15 128/25/25 105/26/26
f 120/22/22 104/24/24 106/27/27 121/28/28
f 105/26/26 128/25/25 127/29/29 107/30/30
f 121/28/28 106/27/27 108/31/31 122/32/32
f 107/30/30 127/29/29 126/33/33 109/34/34
f 122/32/32 108/31/31 110/35/35 123/36/36
f 109/34/34 126/33/33 111/37/37 112/38/38
f 126/33/33 125/39/39 113/40/40 111/37/37
f 125/39/39 124/41/41 114/42/42 113/40/40
f 124/41/41 123/36/36 115/43/43 114/42/42
f 123/36/36 110/35/35 116/44/44 115/43/43
s 3
f 21/45/45 22/46/46 28/47/47 27/48/48
f 22/46/46 23/49/49 29/50/50 28/47/47
f 23/49/49 24/51/51 30/52/52 29/50/50
f 24/51/51 25/53/53 31/54/54 30/52/52
f 25/53/53 26/55/55 32/56/56 31/54/54
s 4
f 27/48/57 28/47/58 34/57/59 33/58/60
f 28/47/58 29/50/61 35/59/62 34/57/59
f 29/50/61 30/52/63 36/60/64 35/59/62
f 30/52/63 31/54/65 37/61/66 36/60/64
f 31/54/65 32/56/67 38/62/68 37/61/66
f 33/58/60 34/57/59 40/63/69 39/64/70
f 34/57/59 35/59/62 41/65/71 40/63/69
f 35/59/62 36/60/64 42/66/72 41/65/71
f 36/60/64 37/61/66 43/67/73 42/66/72
f 37/61/66 38/62/68 44/68/74 43/67/73
f 39/64/70 40/63/69 46/69/75 45/70/76
f 40/63/69 41/65/71 47/71/77 46/69/75
f 41/65/71 42/66/72 48/72/78 47/71/77
f 42/66/72 43/67/73 49/73/79 48/72/78
f 43/67/73 44/68/74 50/74/80 49/73/79
f 45/70/76 46/69/75 52/75/81 51/76/82
f 46/69/75 47/71/77 53/77/83 52/75/81
f 47/71/77 48/72/78 54/78/84 53/77/83
f 48/72/78 49/73/79 55/79/85 54/78/84
f 49/73/79 50/74/80 56/80/86 55/79/85
f 51/76/82 52/75/81 2/81/87 1/82/88
f 52/75/81 53/77/83 3/83/89 2/81/87
f 53/77/83 54/78/84 4/84/90 3/83/89
f 54/78/84 55/79/85 5/85/91 4/84/90
f 55/79/85 56/80/86 6/86/92 5/85/91
s 5
f 38/87/93 32/88/94 26/89/95 20/90/96
f 44/91/97 38/87/93 20/90/96 18/92/98
f 50/93/99 44/91/97 18/92/98 16/94/100
f 56/95/101 50/93/99 16/94/100 14/96/102
f 6/11/103 56/95/101 14/96/102 12/12/104
s 6
f 27/97/105 33/98/106 19/99/107 21/100/108
f 33/98/106 39/101/109 17/102/110 19/99/107
f 39/101/109 45/103/111 15/104/112 17/102/110
f 45/103/111 51/105/113 13/106/114 15/104/112
f 51/105/113 1/1/115 7/4/116 13/106/114
s off
f 7/4/117 8/3/118 58/107/119 57/108/120
f 13/109/121 7/4/122 57/108/123 59/110/124
f 8/3/125 9/6/126 60/111/127 58/107/128
f 9/6/129 10/8/130 61/112/131 60/111/132
f 10/8/133 11/10/134 62/113/135 61/112/136
f 11/10/137 12/12/138 63/114/139 62/113/140
f 12/12/141 14/115/142 64/116/143 63/114/144
f 15/117/145 13/109/146 59/110/147 65/118/148
f 14/115/149 16/119/150 66/120/151 64/116/152
f 17/121/153 15/117/154 65/118/155 67/122/156
f 16/119/157 18/123/158 68/124/159 66/120/160
f 19/125/161 17/121/162 67/122/163 69/126/164
f 18/123/165 20/127/166 70/128/167 68/124/168
f 22/46/169 21/45/170 72/129/171 71/130/172
f 21/45/173 19/125/174 69/126/175 72/129/176
f 23/49/177 22/46/178 71/130/179 73/131/180
f 24/51/181 23/49/182 73/131/183 74/132/184
f 25/53/185 24/51/186 74/132/187 75/133/188
f 20/127/189 26/55/190 76/134/191 70/128/192
f 26/55/193 25/53/194 75/133/195 76/134/196
f 57/108/197 58/107/198 78/135/199 77/136/200
f 59/110/201 57/108/202 77/136/203 79/137/204
f 58/107/205 60/111/206 80/138/207 78/135/208
f 60/111/209 61/112/210 81/139/211 80/138/212
f 61/112/213 62/113/214 82/140/215 81/139/216
f 62/113/217 63/114/218 83/141/219 82/140/220
f 63/114/221 64/116/222 84/142/223 83/141/224
f 65/118/225 59/110/226 79/137/227 85/143/228
f 64/116/229 66/120/230 86/144/231 84/142/232
f 67/122/233 65/118/234 85/143/235 87/145/236
f 66/120/237 68/124/238 88/146/239 86/144/240
f 69/126/241 67/122/242 87/145/243 89/147/244
f 68/124/245 70/128/246 90/148/247 88/146/248
f 71/130/249 72/129/250 92/149/251 91/150/252
f 72/129/253 69/126/254 89/147/255 92/149/256
f 73/131/257 71/130/258 91/150/259 93/151/260
f 74/132/261 73/131/262 93/151/263 94/152/264
f 75/133/265 74/132/266 94/152/267 95/153/268
f 70/128/269 76/134/270 96/154/271 90/148/272
f 76/134/273 75/133/274 95/153/275 96/154/276
f 77/136/277 78/135/278 98/14/279 97/13/280
f 79/137/281 77/136/282 97/13/283 99/16/284
f 78/135/285 80/138/286 100/17/287 98/14/288
f 80/138/289 81/139/290 101/19/291 100/17/292
f 81/139/293 82/140/294 102/21/295 101/19/296
f 82/140/297 83/141/298 103/23/299 102/21/300
f 83/141/301 84/142/302 104/24/303 103/23/304
f 85/143/305 79/137/306 99/16/307 105/26/308
f 84/142/309 86/144/310 106/27/311 104/24/312
f 87/145/313 85/143/314 105/26/315 107/30/316
f 86/144/317 88/146/318 108/31/319 106/27/320
f 89/147/321 87/145/322 107/30/323 109/34/324
f 88/146/325 90/148/326 110/35/327 108/31/328
f 91/150/329 92/149/330 112/38/331 111/37/332
f 92/149/333 89/147/334 109/34/335 112/38/336
f 93/151/337 91/150/338 111/37/339 113/40/340
f 94/152/341 93/151/342 113/40/343 114/42/344
f 95/153/345 94/152/346 114/42/347 115/43/348
f 90/148/349 96/154/350 116/44/351 110/35/352
f 96/154/353 95/153/354 115/43/355 116/44/356
f 118/18/357 119/20/358 120/22/359 121/28/360 122/32/361 123/36/362 124/41/363 125/39/364 126/33/365 127/29/366 128/25/367 117/15/368
