# This file uses centimeters as units for non-parametric coordinates.

mtllib TorchModel.mtl
g default
v 0.704131 -15.491181 -0.511581
v 0.268954 -15.491181 -0.827756
v -0.268954 -15.491181 -0.827756
v -0.704131 -15.491181 -0.511581
v -0.870354 -15.491181 0.000000
v -0.704131 -15.491181 0.511581
v -0.268954 -15.491181 0.827756
v 0.268954 -15.491181 0.827756
v 0.704131 -15.491181 0.511581
v 0.870354 -15.491181 -0.000000
v 0.939942 -12.229165 -0.682908
v 0.359026 -12.229165 -1.104968
v -0.359026 -12.229165 -1.104968
v -0.939942 -12.229165 -0.682908
v -1.161832 -12.229165 0.000000
v -0.939942 -12.229165 0.682908
v -0.359026 -12.229165 1.104968
v 0.359026 -12.229165 1.104968
v 0.939942 -12.229165 0.682908
v 1.161832 -12.229165 -0.000000
v 1.003001 -8.529459 -0.728723
v 0.383112 -8.529459 -1.179099
v -0.383113 -8.529459 -1.179099
v -1.003002 -8.529459 -0.728723
v -1.239778 -8.529459 0.000000
v -1.003001 -8.529459 0.728723
v -0.383112 -8.529459 1.179099
v 0.383112 -8.529459 1.179099
v 1.003001 -8.529459 0.728723
v 1.239778 -8.529459 0.000000
v 1.651745 -1.938158 -1.197438
v 0.633144 -1.938158 -1.937495
v -0.625917 -1.938158 -1.937494
v -1.644518 -1.938158 -1.197437
v -2.033588 -1.938158 0.000000
v -1.644517 -1.938158 1.197438
v -0.625916 -1.938158 1.937495
v 0.633144 -1.938158 1.937494
v 1.651745 -1.938158 1.197437
v 2.040816 -1.938158 0.000000
v 1.433573 -0.038278 -1.038926
v 0.549809 -0.038278 -1.681018
v -0.542582 -0.038278 -1.681017
v -1.426345 -0.038278 -1.038926
v -1.763913 -0.038278 0.000000
v -1.426345 -0.038278 1.038926
v -0.542582 -0.038278 1.681018
v 0.549809 -0.038278 1.681017
v 1.433572 -0.038278 1.038926
v 1.771140 -0.038278 0.000000
v 1.648131 -1.938158 -1.197438
v 0.629530 -1.938158 -1.937495
v -0.629530 -1.938158 -1.937494
v -1.648131 -1.938158 -1.197437
v -2.037202 -1.938158 0.000000
v -1.648131 -1.938158 1.197438
v -0.629530 -1.938158 1.937495
v 0.629530 -1.938158 1.937494
v 1.648131 -1.938158 1.197437
v 2.037202 -1.938158 0.000000
vt 0.626409 0.064409
vt 0.548284 0.007647
vt 0.451716 0.007647
vt 0.373591 0.064409
vt 0.343750 0.156250
vt 0.373591 0.248091
vt 0.451716 0.304853
vt 0.548284 0.304853
vt 0.626409 0.248091
vt 0.656250 0.156250
vt 0.375000 0.312500
vt 0.400000 0.312500
vt 0.425000 0.312500
vt 0.450000 0.312500
vt 0.475000 0.312500
vt 0.500000 0.312500
vt 0.525000 0.312500
vt 0.550000 0.312500
vt 0.575000 0.312500
vt 0.600000 0.312500
vt 0.625000 0.312500
vt 0.375000 0.406250
vt 0.400000 0.406250
vt 0.425000 0.406250
vt 0.450000 0.406250
vt 0.475000 0.406250
vt 0.500000 0.406250
vt 0.525000 0.406250
vt 0.550000 0.406250
vt 0.575000 0.406250
vt 0.600000 0.406250
vt 0.625000 0.406250
vt 0.375000 0.500000
vt 0.400000 0.500000
vt 0.425000 0.500000
vt 0.450000 0.500000
vt 0.475000 0.500000
vt 0.500000 0.500000
vt 0.525000 0.500000
vt 0.550000 0.500000
vt 0.575000 0.500000
vt 0.600000 0.500000
vt 0.625000 0.500000
vt 0.375000 0.593750
vt 0.400000 0.593750
vt 0.425000 0.593750
vt 0.450000 0.593750
vt 0.475000 0.593750
vt 0.500000 0.593750
vt 0.525000 0.593750
vt 0.550000 0.593750
vt 0.575000 0.593750
vt 0.600000 0.593750
vt 0.625000 0.593750
vt 0.375000 0.687500
vt 0.400000 0.687500
vt 0.425000 0.687500
vt 0.450000 0.687500
vt 0.475000 0.687500
vt 0.500000 0.687500
vt 0.525000 0.687500
vt 0.550000 0.687500
vt 0.575000 0.687500
vt 0.600000 0.687500
vt 0.625000 0.687500
vt 0.626409 0.751909
vt 0.548284 0.695147
vt 0.451716 0.695147
vt 0.373591 0.751909
vt 0.343750 0.843750
vt 0.373591 0.935591
vt 0.451716 0.992353
vt 0.548284 0.992353
vt 0.626409 0.935591
vt 0.656250 0.843750
vt 0.600000 0.593750
vt 0.375000 0.593750
vt 0.625000 0.593750
vt 0.575000 0.593750
vt 0.550000 0.593750
vt 0.525000 0.593750
vt 0.500000 0.593750
vt 0.475000 0.593750
vt 0.450000 0.593750
vt 0.425000 0.593750
vt 0.400000 0.593750
vn 0.585674 -0.084677 -0.806111
vn 0.585674 -0.084677 -0.806112
vn 0.587132 -0.047131 -0.808118
vn 0.587132 -0.047131 -0.808118
vn -0.000000 -0.084677 -0.996408
vn -0.000000 -0.084677 -0.996408
vn -0.000000 -0.047131 -0.998889
vn -0.000000 -0.047131 -0.998889
vn -0.585674 -0.084677 -0.806111
vn -0.585674 -0.084677 -0.806111
vn -0.587132 -0.047131 -0.808118
vn -0.587132 -0.047131 -0.808118
vn -0.947641 -0.084677 -0.307907
vn -0.947641 -0.084677 -0.307907
vn -0.950000 -0.047131 -0.308673
vn -0.950000 -0.047131 -0.308673
vn -0.947641 -0.084677 0.307907
vn -0.947641 -0.084677 0.307907
vn -0.950000 -0.047131 0.308674
vn -0.950000 -0.047131 0.308674
vn -0.585674 -0.084677 0.806111
vn -0.585674 -0.084677 0.806112
vn -0.587132 -0.047131 0.808118
vn -0.587132 -0.047131 0.808118
vn 0.000000 -0.084677 0.996409
vn 0.000000 -0.084677 0.996409
vn 0.000000 -0.047131 0.998889
vn 0.000000 -0.047131 0.998889
vn 0.585674 -0.084677 0.806111
vn 0.585674 -0.084677 0.806111
vn 0.587132 -0.047131 0.808118
vn 0.587132 -0.047131 0.808118
vn 0.947641 -0.084677 0.307907
vn 0.947641 -0.084677 0.307907
vn 0.950000 -0.047131 0.308674
vn 0.950000 -0.047131 0.308674
vn 0.947641 -0.084677 -0.307907
vn 0.947641 -0.084677 -0.307907
vn 0.950000 -0.047131 -0.308673
vn 0.950000 -0.047131 -0.308673
vn 0.585508 -0.087940 -0.805883
vn 0.585508 -0.087940 -0.805883
vn -0.000000 -0.087940 -0.996126
vn -0.000000 -0.087940 -0.996126
vn -0.585508 -0.087940 -0.805883
vn -0.585508 -0.087940 -0.805883
vn -0.947372 -0.087940 -0.307820
vn -0.947372 -0.087940 -0.307820
vn -0.947372 -0.087940 0.307820
vn -0.947372 -0.087940 0.307820
vn -0.585508 -0.087940 0.805883
vn -0.585508 -0.087940 0.805883
vn 0.000000 -0.087940 0.996126
vn 0.000000 -0.087940 0.996126
vn 0.585508 -0.087940 0.805883
vn 0.585508 -0.087940 0.805883
vn 0.947372 -0.087940 0.307820
vn 0.947372 -0.087940 0.307820
vn 0.947372 -0.087940 -0.307820
vn 0.947372 -0.087940 -0.307820
vn 0.583933 -0.114306 -0.803714
vn 0.583933 -0.114306 -0.803714
vn -0.000000 -0.114306 -0.993446
vn -0.000000 -0.114306 -0.993446
vn -0.583933 -0.114306 -0.803714
vn -0.583933 -0.114306 -0.803714
vn -0.944823 -0.114306 -0.306991
vn -0.944823 -0.114306 -0.306991
vn -0.944823 -0.114306 0.306992
vn -0.944823 -0.114306 0.306992
vn -0.583933 -0.114306 0.803714
vn -0.583933 -0.114306 0.803714
vn 0.000000 -0.114306 0.993446
vn 0.000000 -0.114306 0.993446
vn 0.583933 -0.114306 0.803714
vn 0.583933 -0.114306 0.803714
vn 0.944823 -0.114306 0.306992
vn 0.944823 -0.114306 0.306992
vn 0.944823 -0.114306 -0.306991
vn 0.944823 -0.114306 -0.306991
vn 0.582501 0.133783 -0.801745
vn 0.582501 0.133783 -0.801744
vn 0.582501 0.133783 -0.801744
vn 0.582501 0.133783 -0.801744
vn -0.000000 0.133783 -0.991011
vn -0.000000 0.133783 -0.991011
vn -0.000000 0.133783 -0.991011
vn -0.000000 0.133783 -0.991011
vn -0.582501 0.133783 -0.801744
vn -0.582502 0.133783 -0.801744
vn -0.582502 0.133783 -0.801744
vn -0.582501 0.133783 -0.801744
vn -0.942507 0.133783 -0.306239
vn -0.942507 0.133783 -0.306239
vn -0.942507 0.133783 -0.306239
vn -0.942507 0.133783 -0.306239
vn -0.942507 0.133783 0.306239
vn -0.942507 0.133783 0.306239
vn -0.942507 0.133783 0.306239
vn -0.942507 0.133783 0.306239
vn -0.582501 0.133783 0.801744
vn -0.582501 0.133783 0.801744
vn -0.582501 0.133783 0.801744
vn -0.582501 0.133783 0.801744
vn 0.000000 0.133783 0.991011
vn 0.000000 0.133783 0.991011
vn 0.000000 0.133783 0.991011
vn 0.000000 0.133783 0.991011
vn 0.582502 0.133783 0.801744
vn 0.582502 0.133783 0.801744
vn 0.582502 0.133783 0.801744
vn 0.582502 0.133783 0.801744
vn 0.942507 0.133783 0.306239
vn 0.942507 0.133783 0.306239
vn 0.942507 0.133783 0.306239
vn 0.942507 0.133783 0.306239
vn 0.942507 0.133783 -0.306239
vn 0.942507 0.133783 -0.306239
vn 0.942507 0.133783 -0.306239
vn 0.942507 0.133783 -0.306239
vn 0.000000 -1.000000 0.000000
vn 0.000000 -1.000000 0.000000
vn 0.000000 -1.000000 0.000000
vn 0.000000 -1.000000 0.000000
vn 0.000000 -1.000000 0.000000
vn 0.000000 -1.000000 0.000000
vn 0.000000 -1.000000 0.000000
vn 0.000000 -1.000000 0.000000
vn 0.000000 -1.000000 0.000000
vn 0.000000 -1.000000 0.000000
vn 0.000000 1.000000 0.000000
vn 0.000000 1.000000 0.000000
vn 0.000000 1.000000 0.000000
vn 0.000000 1.000000 0.000000
vn 0.000000 1.000000 0.000000
vn 0.000000 1.000000 0.000000
vn 0.000000 1.000000 0.000000
vn 0.000000 1.000000 0.000000
vn 0.000000 1.000000 0.000000
vn 0.000000 1.000000 0.000000
vn 0.000000 1.000000 -0.000000
vn 0.000000 1.000000 -0.000000
vn 0.000000 1.000000 -0.000000
vn 0.000000 1.000000 -0.000000
vn 0.000000 1.000000 -0.000000
vn 0.000000 1.000000 -0.000000
vn 0.000000 1.000000 -0.000000
vn 0.000000 1.000000 -0.000000
vn 0.000000 1.000000 -0.000000
vn 0.000000 1.000000 -0.000000
vn 0.000000 -1.000000 0.000000
vn 0.000000 -1.000000 0.000000
vn 0.000000 -1.000000 0.000000
vn 0.000000 -1.000000 0.000000
vn 0.000000 -1.000000 0.000000
vn 0.000000 -1.000000 0.000000
vn 0.000000 -1.000000 0.000000
vn 0.000000 -1.000000 0.000000
vn 0.000000 -1.000000 0.000000
vn 0.000000 -1.000000 0.000000
s 1
g pCylinder1
usemtl initialShadingGroup
f 1/11/1 2/12/2 12/23/3 11/22/4
s 2
f 2/12/5 3/13/6 13/24/7 12/23/8
s 3
f 3/13/9 4/14/10 14/25/11 13/24/12
s 4
f 4/14/13 5/15/14 15/26/15 14/25/16
s 5
f 5/15/17 6/16/18 16/27/19 15/26/20
s 6
f 6/16/21 7/17/22 17/28/23 16/27/24
s 7
f 7/17/25 8/18/26 18/29/27 17/28/28
s 8
f 8/18/29 9/19/30 19/30/31 18/29/32
s 9
f 9/19/33 10/20/34 20/31/35 19/30/36
s 10
f 10/20/37 1/21/38 11/32/39 20/31/40
s 1
f 11/22/4 12/23/3 22/34/41 21/33/42
s 2
f 12/23/8 13/24/7 23/35/43 22/34/44
s 3
f 13/24/12 14/25/11 24/36/45 23/35/46
s 4
f 14/25/16 15/26/15 25/37/47 24/36/48
s 5
f 15/26/20 16/27/19 26/38/49 25/37/50
s 6
f 16/27/24 17/28/23 27/39/51 26/38/52
s 7
f 17/28/28 18/29/27 28/40/53 27/39/54
s 8
f 18/29/32 19/30/31 29/41/55 28/40/56
s 9
f 19/30/36 20/31/35 30/42/57 29/41/58
s 10
f 20/31/40 11/32/39 21/43/59 30/42/60
s 1
f 21/33/42 22/34/41 52/86/61 51/77/62
s 2
f 22/34/44 23/35/43 53/85/63 52/86/64
s 3
f 23/35/46 24/36/45 54/84/65 53/85/66
s 4
f 24/36/48 25/37/47 55/83/67 54/84/68
s 5
f 25/37/50 26/38/49 56/82/69 55/83/70
s 6
f 26/38/52 27/39/51 57/81/71 56/82/72
s 7
f 27/39/54 28/40/53 58/80/73 57/81/74
s 8
f 28/40/56 29/41/55 59/79/75 58/80/76
s 9
f 29/41/58 30/42/57 60/76/77 59/79/78
s 10
f 30/42/60 21/43/59 51/54/79 60/76/80
s off
f 31/44/81 32/45/82 42/56/83 41/55/84
f 32/45/85 33/46/86 43/57/87 42/56/88
f 33/46/89 34/47/90 44/58/91 43/57/92
f 34/47/93 35/48/94 45/59/95 44/58/96
f 35/48/97 36/49/98 46/60/99 45/59/100
f 36/49/101 37/50/102 47/61/103 46/60/104
f 37/50/105 38/51/106 48/62/107 47/61/108
f 38/51/109 39/52/110 49/63/111 48/62/112
f 39/52/113 40/53/114 50/64/115 49/63/116
f 40/53/117 31/78/118 41/65/119 50/64/120
f 1/1/121 10/10/122 9/9/123 8/8/124 7/7/125 6/6/126 5/5/127 4/4/128 3/3/129 2/2/130
f 41/74/131 42/73/132 43/72/133 44/71/134 45/70/135 46/69/136 47/68/137 48/67/138 49/66/139 50/75/140
f 52/86/141 53/85/142 54/84/143 55/83/144 56/82/145 57/81/146 58/80/147 59/79/148 60/76/149 51/77/150
f 32/45/151 31/78/152 40/53/153 39/52/154 38/51/155 37/50/156 36/49/157 35/48/158 34/47/159 33/46/160
